<svg xmlns="http://www.w3.org/2000/svg" version="1.1" xmlns:xlink="http://www.w3.org/1999/xlink" xmlns:svgjs="http://svgjs.dev/svgjs" width="1000" height="1000" viewBox="0 0 1000 1000"><rect width="1000" height="1000" fill="#471aa0"></rect><g transform="matrix(0.7,0,0,0.7,149.57575757575756,288.0997132075472)"><svg viewBox="0 0 396 240" data-background-color="#471aa0" preserveAspectRatio="xMidYMid meet" height="606" width="1000" xmlns="http://www.w3.org/2000/svg" xmlns:xlink="http://www.w3.org/1999/xlink"><g id="tight-bounds" transform="matrix(1,0,0,1,0.2400000000000091,-0.1129919137466402)"><svg viewBox="0 0 395.52 240.22598382749328" height="240.22598382749328" width="395.52"><g><svg viewBox="0 0 395.52 240.22598382749328" height="240.22598382749328" width="395.52"><g><svg viewBox="0 0 395.52 240.22598382749328" height="240.22598382749328" width="395.52"><g id="textblocktransform"><svg viewBox="0 0 395.52 240.22598382749328" height="240.22598382749328" width="395.52" id="textblock"><g><svg viewBox="0 0 395.52 240.22598382749328" height="240.22598382749328" width="395.52"><g transform="matrix(1,0,0,1,0,0)"><svg width="395.52" viewBox="1.9 -33.2 55.65 33.800000000000004" height="240.22598382749328" data-palette-color="#ffffff"><path d="M15 0.6L15 0.6Q12.1 0.6 9.68-0.5 7.25-1.6 5.53-3.75 3.8-5.9 2.85-9.08 1.9-12.25 1.9-16.45L1.9-16.45Q1.9-20.55 2.85-23.68 3.8-26.8 5.53-28.93 7.25-31.05 9.68-32.13 12.1-33.2 15-33.2L15-33.2Q17.9-33.2 20.33-32.13 22.75-31.05 24.48-28.93 26.2-26.8 27.15-23.68 28.1-20.55 28.1-16.45L28.1-16.45Q28.1-12.25 27.15-9.08 26.2-5.9 24.48-3.75 22.75-1.6 20.33-0.5 17.9 0.6 15 0.6ZM15-5.75L15-5.75Q17.55-5.75 19.05-8.45 20.55-11.15 20.55-16.45L20.55-16.45Q20.55-21.55 19.05-24.2 17.55-26.85 15-26.85L15-26.85Q12.45-26.85 10.95-24.2 9.45-21.55 9.45-16.45L9.45-16.45Q9.45-11.15 10.95-8.45 12.45-5.75 15-5.75ZM44.9 0.6L44.9 0.6Q41.6 0.6 38.37-0.58 35.15-1.75 32.5-4.1L32.5-4.1 36.75-9.15Q38.6-7.65 40.8-6.7 43-5.75 45.4-5.75L45.4-5.75Q47.8-5.75 48.9-6.55 50-7.35 50-8.6L50-8.6Q50-9.45 49.65-10.03 49.3-10.6 48.65-11.05 48-11.5 47.05-11.9 46.1-12.3 44.95-12.8L44.95-12.8 40.75-14.6Q39.4-15.1 38.12-15.9 36.85-16.7 35.9-17.78 34.95-18.85 34.37-20.28 33.8-21.7 33.8-23.5L33.8-23.5Q33.8-25.5 34.67-27.28 35.55-29.05 37.12-30.38 38.7-31.7 40.9-32.45 43.1-33.2 45.75-33.2L45.75-33.2Q48.75-33.2 51.55-32.1 54.35-31 56.6-28.9L56.6-28.9 52.85-24.25Q51.15-25.5 49.45-26.18 47.75-26.85 45.35-26.85L45.35-26.85Q43.5-26.85 42.37-26.1 41.25-25.35 41.25-23.9L41.25-23.9Q41.25-22.45 42.72-21.68 44.2-20.9 46.6-20.05L46.6-20.05 50.55-18.35Q53.8-17.15 55.67-15.05 57.55-12.95 57.55-9.5L57.55-9.5Q57.55-7.45 56.7-5.63 55.85-3.8 54.25-2.43 52.65-1.05 50.3-0.23 47.95 0.6 44.9 0.6Z" opacity="1" transform="matrix(1,0,0,1,0,0)" fill="#ffffff" class="wordmark-text-0" data-fill-palette-color="primary" id="text-0"></path></svg></g></svg></g></svg></g></svg></g></svg></g><defs></defs></svg><rect width="395.52" height="240.22598382749328" fill="none" stroke="none" visibility="hidden"></rect></g></svg></g></svg>